<?xml version="1.0" encoding="utf-8"?><svg xmlns="http://www.w3.org/2000/svg" xmlns:xlink="http://www.w3.org/1999/xlink" width="1366" height="768" preserveAspectRatio="xMidYMid" viewBox="0 0 1366 768" style="z-index:1;margin-right:-2px;display:block;background-repeat-y:initial;background-repeat-x:initial;background-color:rgb(241, 242, 243);animation-play-state:paused" ><g transform="" style="animation-play-state:paused" ><g id="bk-0.13422902898973543" style="animation-play-state:paused" ><path d="M 732 374 L 425 322 L 614 512 Z" stroke="#348ae7" fill="#348ae7" style="animation-play-state:paused" ></path>
<path d="M 732 374 L 495 136 L 425 322 Z" stroke="#3c90e9" fill="#3c90e9" style="animation-play-state:paused" ></path>
<path d="M 425 322 L 359 513 L 614 512 Z" stroke="#3489e7" fill="#3489e7" style="animation-play-state:paused" ></path>
<path d="M 732 374 L 824 209 L 495 136 Z" stroke="#3c90e9" fill="#3c90e9" style="animation-play-state:paused" ></path>
<path d="M 425 322 L 296 450 L 359 513 Z" stroke="#378ce8" fill="#378ce8" style="animation-play-state:paused" ></path>
<path d="M 92 -11 L 296 450 L 425 322 Z" stroke="#4194e9" fill="#4194e9" style="animation-play-state:paused" ></path>
<path d="M 962 604 L 975 360 L 732 374 Z" stroke="#2d84e6" fill="#2d84e6" style="animation-play-state:paused" ></path>
<path d="M 732 374 L 975 360 L 824 209 Z" stroke="#358be8" fill="#358be8" style="animation-play-state:paused" ></path>
<path d="M 359 513 L 634 787 L 614 512 Z" stroke="#2c83e6" fill="#2c83e6" style="animation-play-state:paused" ></path>
<path d="M 614 512 L 962 604 L 732 374 Z" stroke="#2c83e6" fill="#2c83e6" style="animation-play-state:paused" ></path>
<path d="M 296 450 L 273 682 L 359 513 Z" stroke="#3288e7" fill="#3288e7" style="animation-play-state:paused" ></path>
<path d="M 359 513 L 442 852 L 634 787 Z" stroke="#2980e5" fill="#2980e5" style="animation-play-state:paused" ></path>
<path d="M 634 787 L 962 604 L 614 512 Z" stroke="#277ee5" fill="#277ee5" style="animation-play-state:paused" ></path>
<path d="M 1110 240 L 852 -18 L 824 209 Z" stroke="#3f93e9" fill="#3f93e9" style="animation-play-state:paused" ></path>
<path d="M 824 209 L 852 -18 L 495 136 Z" stroke="#4496ea" fill="#4496ea" style="animation-play-state:paused" ></path>
<path d="M 434 -180 L 315 -44 L 495 136 Z" stroke="#3788df" fill="#3788df" style="animation-play-state:paused" ></path>
<path d="M 495 136 L 315 -44 L 425 322 Z" stroke="#4496e9" fill="#4496e9" style="animation-play-state:paused" ></path>
<path d="M 296 450 L 57 723 L 273 682 Z" stroke="#3288e7" fill="#3288e7" style="animation-play-state:paused" ></path>
<path d="M 852 -18 L 761 -110 L 495 136 Z" stroke="#3e8fe4" fill="#3e8fe4" style="animation-play-state:paused" ></path>
<path d="M 273 682 L 442 852 L 359 513 Z" stroke="#2c83e6" fill="#2c83e6" style="animation-play-state:paused" ></path>
<path d="M 1227 613 L 1110 240 L 975 360 Z" stroke="#2d84e6" fill="#2d84e6" style="animation-play-state:paused" ></path>
<path d="M 975 360 L 1110 240 L 824 209 Z" stroke="#378ce8" fill="#378ce8" style="animation-play-state:paused" ></path>
<path d="M 761 -110 L 434 -180 L 495 136 Z" stroke="#3888e0" fill="#3888e0" style="animation-play-state:paused" ></path>
<path d="M -110 -212 L 92 -11 L 315 -44 Z" stroke="#2e7dd8" fill="#2e7dd8" style="animation-play-state:paused" ></path>
<path d="M 315 -44 L 92 -11 L 425 322 Z" stroke="#3e8fe5" fill="#3e8fe5" style="animation-play-state:paused" ></path>
<path d="M -150 260 L 57 723 L 296 450 Z" stroke="#3a8fe8" fill="#3a8fe8" style="animation-play-state:paused" ></path>
<path d="M 273 682 L 271 937 L 442 852 Z" stroke="#2a81e5" fill="#2a81e5" style="animation-play-state:paused" ></path>
<path d="M 852 -18 L 1041 -85 L 761 -110 Z" stroke="#3a8be1" fill="#3a8be1" style="animation-play-state:paused" ></path>
<path d="M 761 -110 L 1219 -164 L 434 -180 Z" stroke="#3382db" fill="#3382db" style="animation-play-state:paused" ></path>
<path d="M 1110 240 L 1041 -85 L 852 -18 Z" stroke="#4597ea" fill="#4597ea" style="animation-play-state:paused" ></path>
<path d="M 57 723 L 271 937 L 273 682 Z" stroke="#2e84e6" fill="#2e84e6" style="animation-play-state:paused" ></path>
<path d="M 442 852 L 1088 986 L 634 787 Z" stroke="#267de3" fill="#267de3" style="animation-play-state:paused" ></path>
<path d="M 962 604 L 1227 613 L 975 360 Z" stroke="#277ee5" fill="#277ee5" style="animation-play-state:paused" ></path>
<path d="M 1110 240 L 1282 156 L 1041 -85 Z" stroke="#4093e9" fill="#4093e9" style="animation-play-state:paused" ></path>
<path d="M 1088 986 L 1227 613 L 962 604 Z" stroke="#287ee2" fill="#287ee2" style="animation-play-state:paused" ></path>
<path d="M 1088 986 L 962 604 L 634 787 Z" stroke="#277de3" fill="#277de3" style="animation-play-state:paused" ></path>
<path d="M 92 -11 L -150 260 L 296 450 Z" stroke="#4496e9" fill="#4496e9" style="animation-play-state:paused" ></path>
<path d="M 1420 550 L 1282 156 L 1110 240 Z" stroke="#3187e7" fill="#3187e7" style="animation-play-state:paused" ></path>
<path d="M 271 937 L 1088 986 L 442 852 Z" stroke="#257ce4" fill="#257ce4" style="animation-play-state:paused" ></path>
<path d="M -110 -212 L -161 -7 L 92 -11 Z" stroke="#2d7bd6" fill="#2d7bd6" style="animation-play-state:paused" ></path>
<path d="M 92 -11 L -161 -7 L -150 260 Z" stroke="#3787df" fill="#3787df" style="animation-play-state:paused" ></path>
<path d="M -205 716 L -120 802 L 57 723 Z" stroke="#358be8" fill="#358be8" style="animation-play-state:paused" ></path>
<path d="M 57 723 L -120 802 L 271 937 Z" stroke="#3086e7" fill="#3086e7" style="animation-play-state:paused" ></path>
<path d="M 1282 156 L 1219 -164 L 1041 -85 Z" stroke="#4091e6" fill="#4091e6" style="animation-play-state:paused" ></path>
<path d="M 1041 -85 L 1219 -164 L 761 -110 Z" stroke="#3787df" fill="#3787df" style="animation-play-state:paused" ></path>
<path d="M -150 260 L -205 716 L 57 723 Z" stroke="#3a8fe8" fill="#3a8fe8" style="animation-play-state:paused" ></path>
<path d="M -335 330 L -205 716 L -150 260 Z" stroke="#4295ea" fill="#4295ea" style="animation-play-state:paused" ></path>
<path d="M 1227 613 L 1420 550 L 1110 240 Z" stroke="#287fe5" fill="#287fe5" style="animation-play-state:paused" ></path>
<path d="M 1282 156 L 1601 -38 L 1219 -164 Z" stroke="#4294e8" fill="#4294e8" style="animation-play-state:paused" ></path>
<path d="M 1446 832 L 1420 550 L 1227 613 Z" stroke="#287ee2" fill="#287ee2" style="animation-play-state:paused" ></path>
<path d="M -161 -7 L -280 130 L -150 260 Z" stroke="#3888df" fill="#3888df" style="animation-play-state:paused" ></path>
<path d="M 434 -180 L -110 -212 L 315 -44 Z" stroke="#2c7ad6" fill="#2c7ad6" style="animation-play-state:paused" ></path>
<path d="M -161 -7 L -318 -164 L -280 130 Z" stroke="#2d7cd7" fill="#2d7cd7" style="animation-play-state:paused" ></path>
<path d="M 1219 -164 L -110 -212 L 434 -180 Z" stroke="#2d7bd7" fill="#2d7bd7" style="animation-play-state:paused" ></path>
<path d="M -280 130 L -335 330 L -150 260 Z" stroke="#3d8ee4" fill="#3d8ee4" style="animation-play-state:paused" ></path>
<path d="M 1586 459 L 1526 143 L 1282 156 Z" stroke="#348ae7" fill="#348ae7" style="animation-play-state:paused" ></path>
<path d="M 1088 986 L 1343 985 L 1227 613 Z" stroke="#2b7fe0" fill="#2b7fe0" style="animation-play-state:paused" ></path>
<path d="M 1420 550 L 1586 459 L 1282 156 Z" stroke="#2b82e6" fill="#2b82e6" style="animation-play-state:paused" ></path>
<path d="M 1343 985 L 1446 832 L 1227 613 Z" stroke="#2c80e0" fill="#2c80e0" style="animation-play-state:paused" ></path>
<path d="M 1778 651 L 1586 459 L 1420 550 Z" stroke="#267de3" fill="#267de3" style="animation-play-state:paused" ></path>
<path d="M -110 -212 L -318 -164 L -161 -7 Z" stroke="#2774d1" fill="#2774d1" style="animation-play-state:paused" ></path>
<path d="M -280 130 L -318 -164 L -335 330 Z" stroke="#3383dc" fill="#3383dc" style="animation-play-state:paused" ></path>
<path d="M -335 330 L -420 757 L -205 716 Z" stroke="#3e92e9" fill="#3e92e9" style="animation-play-state:paused" ></path>
<path d="M -205 716 L -420 757 L -120 802 Z" stroke="#398de8" fill="#398de8" style="animation-play-state:paused" ></path>
<path d="M -120 802 L -420 757 L 271 937 Z" stroke="#3489e7" fill="#3489e7" style="animation-play-state:paused" ></path>
<path d="M -318 -164 L -420 757 L -335 330 Z" stroke="#3f90e5" fill="#3f90e5" style="animation-play-state:paused" ></path>
<path d="M 1614 -24 L 1601 -38 L 1526 143 Z" stroke="#4396ea" fill="#4396ea" style="animation-play-state:paused" ></path>
<path d="M 1526 143 L 1601 -38 L 1282 156 Z" stroke="#3f93e9" fill="#3f93e9" style="animation-play-state:paused" ></path>
<path d="M 1828 -66 L 1614 -24 L 1526 143 Z" stroke="#4496ea" fill="#4496ea" style="animation-play-state:paused" ></path>
<path d="M 1446 832 L 1778 651 L 1420 550 Z" stroke="#2a7fe1" fill="#2a7fe1" style="animation-play-state:paused" ></path>
<path d="M 1586 459 L 1865 483 L 1526 143 Z" stroke="#2c83e6" fill="#2c83e6" style="animation-play-state:paused" ></path>
<path d="M 1721 851 L 1778 651 L 1446 832 Z" stroke="#2d80df" fill="#2d80df" style="animation-play-state:paused" ></path>
<path d="M 1343 985 L 1721 851 L 1446 832 Z" stroke="#2f81df" fill="#2f81df" style="animation-play-state:paused" ></path>
<path d="M 1721 851 L 1865 483 L 1778 651 Z" stroke="#2a7fe1" fill="#2a7fe1" style="animation-play-state:paused" ></path>
<path d="M 1778 651 L 1865 483 L 1586 459 Z" stroke="#267de3" fill="#267de3" style="animation-play-state:paused" ></path>
<path d="M 1865 483 L 1828 -66 L 1526 143 Z" stroke="#388de8" fill="#388de8" style="animation-play-state:paused" ></path>
<path d="M 1614 -24 L 1828 -66 L 1601 -38 Z" stroke="#4193e7" fill="#4193e7" style="animation-play-state:paused" ></path>
<path d="M 1601 -38 L 1828 -66 L 1219 -164 Z" stroke="#3d8ee4" fill="#3d8ee4" style="animation-play-state:paused" ></path></g>
<style type="text/css" style="animation-play-state:paused" >#bk-0.13422902898973543 path { stroke-width: 1 }</style></g></svg>